<?xml version="1.0" encoding="UTF-8" standalone="no"?>
<svg
   xmlns:dc="http://purl.org/dc/elements/1.1/"
   xmlns:cc="http://creativecommons.org/ns#"
   xmlns:rdf="http://www.w3.org/1999/02/22-rdf-syntax-ns#"
   xmlns:svg="http://www.w3.org/2000/svg"
   xmlns="http://www.w3.org/2000/svg"
   xmlns:sodipodi="http://sodipodi.sourceforge.net/DTD/sodipodi-0.dtd"
   xmlns:inkscape="http://www.inkscape.org/namespaces/inkscape"
   width="595.276pt"
   height="841.89pt"
   viewBox="0 0 595.276 841.89"
   fill-rule="evenodd"
   version="1.1"
   id="svg6"
   sodipodi:docname="Face_avant.svg"
   inkscape:version="1.0.1 (3bc2e813f5, 2020-09-07)">
  <metadata
     id="metadata12">
    <rdf:RDF>
      <cc:Work
         rdf:about="">
        <dc:format>image/svg+xml</dc:format>
        <dc:type
           rdf:resource="http://purl.org/dc/dcmitype/StillImage" />
      </cc:Work>
    </rdf:RDF>
  </metadata>
  <defs
     id="defs10" />
  <sodipodi:namedview
     pagecolor="#ffffff"
     bordercolor="#666666"
     borderopacity="1"
     objecttolerance="10"
     gridtolerance="10"
     guidetolerance="10"
     inkscape:pageopacity="0"
     inkscape:pageshadow="2"
     inkscape:window-width="1920"
     inkscape:window-height="1027"
     id="namedview8"
     showgrid="false"
     inkscape:zoom="0.39108434"
     inkscape:cx="-183.63231"
     inkscape:cy="1023.504"
     inkscape:window-x="-8"
     inkscape:window-y="-8"
     inkscape:window-maximized="1"
     inkscape:current-layer="svg6"
     inkscape:document-rotation="0" />
  <g
     id="g4"
     transform="matrix(2.8329355,0,0,2.8340493,144.9754,-990.61922)"
     style="stroke:#ff0000;stroke-width:0.0500266;stroke-miterlimit:4;stroke-dasharray:none;stroke-opacity:1">
    <path
       style="fill:none;stroke:#ff0000;stroke-width:0.0500266;stroke-linecap:round;stroke-linejoin:round;stroke-miterlimit:4;stroke-dasharray:none;stroke-opacity:1"
       d="m 0,551.89 h 10.4 v -10 H 0 v -10 h 10.4 v -10 H 0 v -10 h 10.4 v -10 H 0 v -10 h 10.4 v -10 H 0 v -10 h 10.4 v -10 H 0 v -10 h 10.4 v -10 h 279.2 v 10 H 300 v 10 h -10.4 v 10 H 300 v 10 h -10.4 v 10 H 300 v 10 h -10.4 v 10 H 300 v 10 h -10.4 v 10 H 300 v 10 h -10.4 v 10 H 300 v 10 h -10.4 v 10 H 300 v 10 h -10.4 v 10 H 300 v 10 h -10.4 v 10 H 300 v 10 h -10.4 v 10 H 300 v 10 h -10.4 v 10 H 300 v 10 h -10.4 v 10 H 300 v 10 h -10.4 v 10 H 300 v 10 h -10.4 v 10 H 300 v 10 h -10.4 v 10 H 300 v 10 h -10.4 v 10 H 300 v 10 h -10.4 v 10 H 300 v 10 h -10.4 v 10 H 300 v 10 h -10.4 v 10 H 300 v 10 h -10.4 v 10 H 300 v 10 H 0 v -10 h 10.4 v -10 H 0 v -10 h 10.4 v -10 H 0 v -10 h 10.4 v -10 H 0 v -10 h 10.4 v -10 H 0 v -10 h 10.4 v -10 H 0 v -10 h 10.4 v -10 H 0 v -10 h 10.4 v -10 H 0 v -10 h 10.4 v -10 H 0 v -10 h 10.4 v -10 H 0 v -10 h 10.4 v -10 H 0 v -10 h 10.4 v -10 H 0 v -10 h 10.4 v -10 H 0 v -10 h 10.4 v -10 H 0 v -10 h 10.4 v -10 H 0 Z"
       id="path2" />
  </g>
</svg>
